<?xml version="1.0" encoding="UTF-8" standalone="no"?>
<svg id="svg2" xmlns="http://www.w3.org/2000/svg" version="1.1" width="32" height="32" viewBox="0 0 32 32">
<rect width="1" height="1" x="9" y="4" fill="#103f36" fill-opacity="1.00" />
<rect width="1" height="1" x="10" y="4" fill="#103f36" fill-opacity="1.00" />
<rect width="1" height="1" x="11" y="4" fill="#103f36" fill-opacity="1.00" />
<rect width="1" height="1" x="12" y="4" fill="#103f36" fill-opacity="1.00" />
<rect width="1" height="1" x="13" y="4" fill="#103f36" fill-opacity="1.00" />
<rect width="1" height="1" x="14" y="4" fill="#103f36" fill-opacity="1.00" />
<rect width="1" height="1" x="15" y="4" fill="#103f36" fill-opacity="1.00" />
<rect width="1" height="1" x="8" y="5" fill="#103f36" fill-opacity="1.00" />
<rect width="1" height="1" x="9" y="5" fill="#31b19a" fill-opacity="1.00" />
<rect width="1" height="1" x="10" y="5" fill="#31b19a" fill-opacity="1.00" />
<rect width="1" height="1" x="11" y="5" fill="#31b19a" fill-opacity="1.00" />
<rect width="1" height="1" x="12" y="5" fill="#31b19a" fill-opacity="1.00" />
<rect width="1" height="1" x="13" y="5" fill="#31b19a" fill-opacity="1.00" />
<rect width="1" height="1" x="14" y="5" fill="#31b19a" fill-opacity="1.00" />
<rect width="1" height="1" x="15" y="5" fill="#31b19a" fill-opacity="1.00" />
<rect width="1" height="1" x="16" y="5" fill="#103f36" fill-opacity="1.00" />
<rect width="1" height="1" x="17" y="5" fill="#103f36" fill-opacity="1.00" />
<rect width="1" height="1" x="18" y="5" fill="#103f36" fill-opacity="1.00" />
<rect width="1" height="1" x="19" y="5" fill="#103f36" fill-opacity="1.00" />
<rect width="1" height="1" x="9" y="6" fill="#103f36" fill-opacity="1.00" />
<rect width="1" height="1" x="10" y="6" fill="#41eacb" fill-opacity="1.00" />
<rect width="1" height="1" x="11" y="6" fill="#41eacb" fill-opacity="1.00" />
<rect width="1" height="1" x="12" y="6" fill="#41eacb" fill-opacity="1.00" />
<rect width="1" height="1" x="13" y="6" fill="#37c6ac" fill-opacity="1.00" />
<rect width="1" height="1" x="14" y="6" fill="#37c6ac" fill-opacity="1.00" />
<rect width="1" height="1" x="15" y="6" fill="#37c6ac" fill-opacity="1.00" />
<rect width="1" height="1" x="16" y="6" fill="#37c6ac" fill-opacity="1.00" />
<rect width="1" height="1" x="17" y="6" fill="#37c6ac" fill-opacity="1.00" />
<rect width="1" height="1" x="18" y="6" fill="#31b19a" fill-opacity="1.00" />
<rect width="1" height="1" x="19" y="6" fill="#31b19a" fill-opacity="1.00" />
<rect width="1" height="1" x="20" y="6" fill="#103f36" fill-opacity="1.00" />
<rect width="1" height="1" x="21" y="6" fill="#103f36" fill-opacity="1.00" />
<rect width="1" height="1" x="22" y="6" fill="#103f36" fill-opacity="1.00" />
<rect width="1" height="1" x="10" y="7" fill="#103f36" fill-opacity="1.00" />
<rect width="1" height="1" x="11" y="7" fill="#103f36" fill-opacity="1.00" />
<rect width="1" height="1" x="12" y="7" fill="#103f36" fill-opacity="1.00" />
<rect width="1" height="1" x="13" y="7" fill="#41eacb" fill-opacity="1.00" />
<rect width="1" height="1" x="14" y="7" fill="#41eacb" fill-opacity="1.00" />
<rect width="1" height="1" x="15" y="7" fill="#41eacb" fill-opacity="1.00" />
<rect width="1" height="1" x="16" y="7" fill="#37c6ac" fill-opacity="1.00" />
<rect width="1" height="1" x="17" y="7" fill="#37c6ac" fill-opacity="1.00" />
<rect width="1" height="1" x="18" y="7" fill="#37c6ac" fill-opacity="1.00" />
<rect width="1" height="1" x="19" y="7" fill="#37c6ac" fill-opacity="1.00" />
<rect width="1" height="1" x="20" y="7" fill="#31b19a" fill-opacity="1.00" />
<rect width="1" height="1" x="21" y="7" fill="#31b19a" fill-opacity="1.00" />
<rect width="1" height="1" x="22" y="7" fill="#268977" fill-opacity="1.00" />
<rect width="1" height="1" x="23" y="7" fill="#37c6ac" fill-opacity="1.00" />
<rect width="1" height="1" x="13" y="8" fill="#103f36" fill-opacity="1.00" />
<rect width="1" height="1" x="14" y="8" fill="#103f36" fill-opacity="1.00" />
<rect width="1" height="1" x="15" y="8" fill="#41eacb" fill-opacity="1.00" />
<rect width="1" height="1" x="16" y="8" fill="#41eacb" fill-opacity="1.00" />
<rect width="1" height="1" x="17" y="8" fill="#41eacb" fill-opacity="1.00" />
<rect width="1" height="1" x="18" y="8" fill="#37c6ac" fill-opacity="1.00" />
<rect width="1" height="1" x="19" y="8" fill="#37c6ac" fill-opacity="1.00" />
<rect width="1" height="1" x="20" y="8" fill="#207768" fill-opacity="1.00" />
<rect width="1" height="1" x="21" y="8" fill="#268977" fill-opacity="1.00" />
<rect width="1" height="1" x="22" y="8" fill="#31b19a" fill-opacity="1.00" />
<rect width="1" height="1" x="23" y="8" fill="#37c6ac" fill-opacity="1.00" />
<rect width="1" height="1" x="24" y="8" fill="#37c6ac" fill-opacity="1.00" />
<rect width="1" height="1" x="15" y="9" fill="#103f36" fill-opacity="1.00" />
<rect width="1" height="1" x="16" y="9" fill="#103f36" fill-opacity="1.00" />
<rect width="1" height="1" x="17" y="9" fill="#103f36" fill-opacity="1.00" />
<rect width="1" height="1" x="18" y="9" fill="#41eacb" fill-opacity="1.00" />
<rect width="1" height="1" x="19" y="9" fill="#41eacb" fill-opacity="1.00" />
<rect width="1" height="1" x="22" y="9" fill="#37c6ac" fill-opacity="1.00" />
<rect width="1" height="1" x="23" y="9" fill="#31b19a" fill-opacity="1.00" />
<rect width="1" height="1" x="24" y="9" fill="#268977" fill-opacity="1.00" />
<rect width="1" height="1" x="25" y="9" fill="#103f36" fill-opacity="1.00" />
<rect width="1" height="1" x="11" y="10" fill="#103f36" fill-opacity="1.00" />
<rect width="1" height="1" x="12" y="10" fill="#103f36" fill-opacity="1.00" />
<rect width="1" height="1" x="13" y="10" fill="#103f36" fill-opacity="1.00" />
<rect width="1" height="1" x="18" y="10" fill="#103f36" fill-opacity="1.00" />
<rect width="1" height="1" x="23" y="10" fill="#268977" fill-opacity="1.00" />
<rect width="1" height="1" x="24" y="10" fill="#31b19a" fill-opacity="1.00" />
<rect width="1" height="1" x="25" y="10" fill="#103f36" fill-opacity="1.00" />
<rect width="1" height="1" x="12" y="11" fill="#103f36" fill-opacity="1.00" />
<rect width="1" height="1" x="13" y="11" fill="#41eacb" fill-opacity="1.00" />
<rect width="1" height="1" x="14" y="11" fill="#103f36" fill-opacity="1.00" />
<rect width="1" height="1" x="15" y="11" fill="#103f36" fill-opacity="1.00" />
<rect width="1" height="1" x="23" y="11" fill="#207768" fill-opacity="1.00" />
<rect width="1" height="1" x="24" y="11" fill="#31b19a" fill-opacity="1.00" />
<rect width="1" height="1" x="25" y="11" fill="#103f36" fill-opacity="1.00" />
<rect width="1" height="1" x="13" y="12" fill="#103f36" fill-opacity="1.00" />
<rect width="1" height="1" x="14" y="12" fill="#41eacb" fill-opacity="1.00" />
<rect width="1" height="1" x="15" y="12" fill="#31b19a" fill-opacity="1.00" />
<rect width="1" height="1" x="16" y="12" fill="#103f36" fill-opacity="1.00" />
<rect width="1" height="1" x="22" y="12" fill="#41eacb" fill-opacity="1.00" />
<rect width="1" height="1" x="23" y="12" fill="#37c6ac" fill-opacity="1.00" />
<rect width="1" height="1" x="24" y="12" fill="#37c6ac" fill-opacity="1.00" />
<rect width="1" height="1" x="25" y="12" fill="#31b19a" fill-opacity="1.00" />
<rect width="1" height="1" x="26" y="12" fill="#103f36" fill-opacity="1.00" />
<rect width="1" height="1" x="13" y="13" fill="#103f36" fill-opacity="1.00" />
<rect width="1" height="1" x="14" y="13" fill="#31b19a" fill-opacity="1.00" />
<rect width="1" height="1" x="15" y="13" fill="#31b19a" fill-opacity="1.00" />
<rect width="1" height="1" x="21" y="13" fill="#103f36" fill-opacity="1.00" />
<rect width="1" height="1" x="22" y="13" fill="#41eacb" fill-opacity="1.00" />
<rect width="1" height="1" x="23" y="13" fill="#37c6ac" fill-opacity="1.00" />
<rect width="1" height="1" x="24" y="13" fill="#37c6ac" fill-opacity="1.00" />
<rect width="1" height="1" x="25" y="13" fill="#31b19a" fill-opacity="1.00" />
<rect width="1" height="1" x="26" y="13" fill="#103f36" fill-opacity="1.00" />
<rect width="1" height="1" x="9" y="14" fill="#103f36" fill-opacity="1.00" />
<rect width="1" height="1" x="14" y="14" fill="#103f36" fill-opacity="1.00" />
<rect width="1" height="1" x="22" y="14" fill="#103f36" fill-opacity="1.00" />
<rect width="1" height="1" x="23" y="14" fill="#41eacb" fill-opacity="1.00" />
<rect width="1" height="1" x="24" y="14" fill="#37c6ac" fill-opacity="1.00" />
<rect width="1" height="1" x="25" y="14" fill="#37c6ac" fill-opacity="1.00" />
<rect width="1" height="1" x="26" y="14" fill="#103f36" fill-opacity="1.00" />
<rect width="1" height="1" x="10" y="15" fill="#103f36" fill-opacity="1.00" />
<rect width="1" height="1" x="11" y="15" fill="#103f36" fill-opacity="1.00" />
<rect width="1" height="1" x="19" y="15" fill="#103f36" fill-opacity="1.00" />
<rect width="1" height="1" x="22" y="15" fill="#103f36" fill-opacity="1.00" />
<rect width="1" height="1" x="23" y="15" fill="#41eacb" fill-opacity="1.00" />
<rect width="1" height="1" x="24" y="15" fill="#37c6ac" fill-opacity="1.00" />
<rect width="1" height="1" x="25" y="15" fill="#37c6ac" fill-opacity="1.00" />
<rect width="1" height="1" x="26" y="15" fill="#103f36" fill-opacity="1.00" />
<rect width="1" height="1" x="10" y="16" fill="#103f36" fill-opacity="1.00" />
<rect width="1" height="1" x="11" y="16" fill="#31b19a" fill-opacity="1.00" />
<rect width="1" height="1" x="12" y="16" fill="#103f36" fill-opacity="1.00" />
<rect width="1" height="1" x="18" y="16" fill="#31b19a" fill-opacity="1.00" />
<rect width="1" height="1" x="19" y="16" fill="#31b19a" fill-opacity="1.00" />
<rect width="1" height="1" x="20" y="16" fill="#103f36" fill-opacity="1.00" />
<rect width="1" height="1" x="22" y="16" fill="#103f36" fill-opacity="1.00" />
<rect width="1" height="1" x="23" y="16" fill="#41eacb" fill-opacity="1.00" />
<rect width="1" height="1" x="24" y="16" fill="#41eacb" fill-opacity="1.00" />
<rect width="1" height="1" x="25" y="16" fill="#37c6ac" fill-opacity="1.00" />
<rect width="1" height="1" x="26" y="16" fill="#31b19a" fill-opacity="1.00" />
<rect width="1" height="1" x="27" y="16" fill="#103f36" fill-opacity="1.00" />
<rect width="1" height="1" x="11" y="17" fill="#103f36" fill-opacity="1.00" />
<rect width="1" height="1" x="17" y="17" fill="#103f36" fill-opacity="1.00" />
<rect width="1" height="1" x="18" y="17" fill="#31b19a" fill-opacity="1.00" />
<rect width="1" height="1" x="19" y="17" fill="#41eacb" fill-opacity="1.00" />
<rect width="1" height="1" x="20" y="17" fill="#103f36" fill-opacity="1.00" />
<rect width="1" height="1" x="23" y="17" fill="#103f36" fill-opacity="1.00" />
<rect width="1" height="1" x="24" y="17" fill="#41eacb" fill-opacity="1.00" />
<rect width="1" height="1" x="25" y="17" fill="#37c6ac" fill-opacity="1.00" />
<rect width="1" height="1" x="26" y="17" fill="#31b19a" fill-opacity="1.00" />
<rect width="1" height="1" x="27" y="17" fill="#103f36" fill-opacity="1.00" />
<rect width="1" height="1" x="18" y="18" fill="#103f36" fill-opacity="1.00" />
<rect width="1" height="1" x="19" y="18" fill="#103f36" fill-opacity="1.00" />
<rect width="1" height="1" x="20" y="18" fill="#41eacb" fill-opacity="1.00" />
<rect width="1" height="1" x="21" y="18" fill="#103f36" fill-opacity="1.00" />
<rect width="1" height="1" x="23" y="18" fill="#103f36" fill-opacity="1.00" />
<rect width="1" height="1" x="24" y="18" fill="#41eacb" fill-opacity="1.00" />
<rect width="1" height="1" x="25" y="18" fill="#37c6ac" fill-opacity="1.00" />
<rect width="1" height="1" x="26" y="18" fill="#31b19a" fill-opacity="1.00" />
<rect width="1" height="1" x="27" y="18" fill="#103f36" fill-opacity="1.00" />
<rect width="1" height="1" x="15" y="19" fill="#103f36" fill-opacity="1.00" />
<rect width="1" height="1" x="20" y="19" fill="#103f36" fill-opacity="1.00" />
<rect width="1" height="1" x="21" y="19" fill="#103f36" fill-opacity="1.00" />
<rect width="1" height="1" x="24" y="19" fill="#103f36" fill-opacity="1.00" />
<rect width="1" height="1" x="25" y="19" fill="#41eacb" fill-opacity="1.00" />
<rect width="1" height="1" x="26" y="19" fill="#31b19a" fill-opacity="1.00" />
<rect width="1" height="1" x="27" y="19" fill="#103f36" fill-opacity="1.00" />
<rect width="1" height="1" x="14" y="20" fill="#103f36" fill-opacity="1.00" />
<rect width="1" height="1" x="15" y="20" fill="#31b19a" fill-opacity="1.00" />
<rect width="1" height="1" x="16" y="20" fill="#103f36" fill-opacity="1.00" />
<rect width="1" height="1" x="21" y="20" fill="#103f36" fill-opacity="1.00" />
<rect width="1" height="1" x="24" y="20" fill="#103f36" fill-opacity="1.00" />
<rect width="1" height="1" x="25" y="20" fill="#41eacb" fill-opacity="1.00" />
<rect width="1" height="1" x="26" y="20" fill="#31b19a" fill-opacity="1.00" />
<rect width="1" height="1" x="27" y="20" fill="#103f36" fill-opacity="1.00" />
<rect width="1" height="1" x="15" y="21" fill="#103f36" fill-opacity="1.00" />
<rect width="1" height="1" x="16" y="21" fill="#103f36" fill-opacity="1.00" />
<rect width="1" height="1" x="24" y="21" fill="#103f36" fill-opacity="1.00" />
<rect width="1" height="1" x="25" y="21" fill="#41eacb" fill-opacity="1.00" />
<rect width="1" height="1" x="26" y="21" fill="#31b19a" fill-opacity="1.00" />
<rect width="1" height="1" x="27" y="21" fill="#103f36" fill-opacity="1.00" />
<rect width="1" height="1" x="17" y="22" fill="#103f36" fill-opacity="1.00" />
<rect width="1" height="1" x="25" y="22" fill="#103f36" fill-opacity="1.00" />
<rect width="1" height="1" x="26" y="22" fill="#31b19a" fill-opacity="1.00" />
<rect width="1" height="1" x="27" y="22" fill="#103f36" fill-opacity="1.00" />
<rect width="1" height="1" x="26" y="23" fill="#103f36" fill-opacity="1.00" />
</svg>
